<?xml version="1.0" encoding="UTF-8"?>
<!DOCTYPE svg PUBLIC "-//W3C//DTD SVG 1.1//EN" "http://www.w3.org/Graphics/SVG/1.1/DTD/svg11.dtd">
<!-- Creator: CorelDRAW 2019 (64-Bit) -->
<svg xmlns="http://www.w3.org/2000/svg" xml:space="preserve" width="475mm" height="120mm" version="1.1" style="shape-rendering:geometricPrecision; text-rendering:geometricPrecision; image-rendering:optimizeQuality; fill-rule:evenodd; clip-rule:evenodd"
viewBox="0 0 47500 12000"
 xmlns:xlink="http://www.w3.org/1999/xlink">
 <defs>
  <style type="text/css">
   <![CDATA[
    .fil0 {fill:#00AFEF}
   ]]>
  </style>
 </defs>
 <g id="Capa_x0020_1">
  <metadata id="CorelCorpID_0Corel-Layer"/>
  <path class="fil0" d="M2900.73 5833.67c0,-896.82 676.31,-1537.31 1491.46,-1585.67 817.73,-48.5 1590.45,616.05 1590.45,1708.95 0,768.12 -805.87,1510.38 -1581.27,1453.21 -866.65,-63.92 -1500.64,-681.19 -1500.64,-1576.49zm-1356.03 0c0,140.91 1353.2,2347.34 1417.68,2588.8l2958.63 0c1709.57,-3230.92 1704.33,-2089.99 720.03,-3863.58 -257.1,-463.24 -480.23,-860.82 -720.03,-1314.02l-2958.63 0c-62.07,232.46 -1417.68,2445.37 -1417.68,2588.8z"/>
  <path class="fil0" d="M7770.15 8730.65c0,-930.13 626.97,-1602.58 1664.23,-1602.58 702.51,0 1417.68,715.16 1417.68,1417.68 0,2438 -3081.91,2089.17 -3081.91,184.9zm184.92 2527.16l2712.08 0c236.34,0 1041.65,-1614.02 1192.28,-1889.61 477.49,-873.67 568.37,-400.01 -702.37,-2606.78 -95.83,-166.41 -315.67,-490.33 -366.65,-681.21l-2896.97 0c-156.51,233.71 -1455.8,2499.34 -1461.36,2597.89 -9.27,164.8 578.2,1075.13 701.2,1305.79 139.66,261.89 228.95,421.7 371.31,676.54 192.57,344.72 265.86,597.38 450.48,597.38z"/>
  <path class="fil0" d="M7770.15 2998.32c0,-1402.91 1604.63,-2110.98 2605.72,-1188.05 852.31,785.77 643.46,2729 -1188.04,2729 -750.7,0 -1417.68,-779.47 -1417.68,-1540.95zm123.29 2588.8l2896.97 0c46.84,-175.35 240.47,-468.33 343.6,-642.62l1074.09 -1884.55c0,-248.52 -219.2,-527.65 -327.2,-720.64 -154.59,-276.24 -971.99,-1929.79 -1213.75,-1929.79l-2712.08 0c-192.78,0 -228.08,209.68 -428.28,557.93l-1094.37 1977.31c-11.22,140.58 1297.45,2398.12 1461.02,2642.36z"/>
  <path class="fil0" d="M28110.74 5833.67c0,299.21 448.46,184.91 1232.77,184.91l0 -1787.51c230.73,265.47 576.09,896.47 801.29,1232.77 227.43,-152.29 529.68,-765.55 727.16,-1060.35l135.78 -172.42 0 1787.51 1232.75 0 0 -3759.92c-1503.13,0 -1207.71,-132.01 -1614.22,543.11 -130.8,217.21 -299.25,436.62 -358.19,689.64 -246.88,-65.91 -135.53,-50.36 -434.9,-551.3 -108.43,-181.41 -315.42,-462.6 -366.41,-681.45l-1356.03 0 0 3575.01z"/>
  <path class="fil0" d="M17015.87 4724.18l0 -1356.03c1583.41,0 1138.91,1232.72 733.99,1412.06 -146.26,64.77 -733.99,254.46 -733.99,-56.03zm-1232.75 1294.4c1667.18,0 3575,164.12 3575,-2034.05 0,-1196.06 -1012.83,-1725.87 -2157.34,-1725.87l-1417.66 0 0 3759.92z"/>
  <path class="fil0" d="M20775.8 4107.81c0,-1031.43 1479.32,-1071.53 1479.32,0 0,1121.54 -1479.32,1060.08 -1479.32,0zm-1232.77 -184.92l0 308.18c0,1620.54 2121.38,2451.8 3314.25,1341.83 1222.3,-1137.36 716.68,-3375.87 -1465.1,-3375.87 -896.44,0 -1849.15,850.4 -1849.15,1725.86z"/>
  <path class="fil0" d="M32548.68 5833.67c0,142.03 42.9,184.91 184.92,184.91l2958.63 0 0 -1047.85 -1910.78 0 0 -369.83 1787.51 0 0 -924.57 -1787.51 0 0 -369.83 1910.78 0 0 -1047.84 -3143.55 0 0 3575.01z"/>
  <path class="fil0" d="M23611.15 3491.41c0,792.45 872.6,1025.11 1430.07,1158.75 509.73,122.18 535.36,63.57 603.99,320.57 -491.56,276.18 -1473.33,-290.13 -1540.95,-308.18 -209.08,140.01 -210.64,191.78 -361.3,378.34 -166.04,205.6 -180.34,165.22 -316.73,422.95 522.16,276.29 945.58,616.37 1849.15,616.37 620.71,0 1234.01,-206 1502.46,-716.5 827.82,-1574.06 -1431.25,-1764.23 -1655.63,-1842.4 -206.11,-71.78 -197.2,-42.53 -216.66,-276.44 912.11,-75.89 866.15,177.38 1356.05,308.19 151.29,-225.92 508.99,-691.63 554.74,-862.93 -1311.44,-878.18 -3205.19,-596.41 -3205.19,801.28z"/>
  <path class="fil0" d="M40746.56 3799.61c137.86,158.6 289.99,582.65 308.18,801.29l-554.74 0c20.34,-244.26 182.57,-526.61 246.56,-801.29zm-2095.71 2218.97l1294.4 0c90.7,-171.37 134.8,-277.96 184.92,-493.11l1294.4 0c50.13,215.15 94.24,321.74 184.91,493.11l1294.42 0c-25.62,-307.84 -228.51,-676.17 -343.83,-950.59 -140.3,-333.88 -234.87,-588.76 -369.06,-925.34l-766.44 -1883.99 -1294.4 0c-28.43,341.82 -1361.94,3256.1 -1479.32,3759.92z"/>
  <path class="fil0" d="M35815.51 3368.15l1047.85 0 0 2465.52c0,299.21 448.46,184.91 1232.75,184.91l0 -2650.43c1347.59,0 1109.49,238.09 1109.49,-1109.49l-3390.09 0 0 1109.49z"/>
  <path class="fil0" d="M42965.53 2443.58l0 3390.09c0,142.03 42.88,184.91 184.92,184.91l2773.71 0 0 -1109.48 -1664.23 0 0 -2650.44c-808.38,0 -1294.4,-119.03 -1294.4,184.92z"/>
  <path class="fil0" d="M43658.43 7608.88c0,889.75 1133.17,519.96 1278.91,1065.73 -272.11,227.29 -797.74,-150.71 -1065.76,-213.15 -56.12,210.21 -28.91,115.18 -142.11,284.22 -257.85,-144.87 -1021.16,-71.07 -1349.95,-71.07l0 -355.24 1136.8 0 0 -497.34 -1136.8 0 0 -355.26 1207.86 0 0 -568.41 -1847.31 0 0 2415.71c1646.53,0 1880.61,169.52 1918.36,-284.2 232.47,62.08 200.32,119.45 438.57,200.89 1361.31,465.4 2133.22,-853.05 1056.23,-1340.43 -545.61,-246.89 -680.51,-34.9 -784.3,-423.56 504.77,-117.59 484.13,105.53 923.66,142.11 110.45,-164.93 226.15,-279.93 284.2,-497.37 -232.45,-62.06 -200.32,-119.43 -438.57,-200.88 -780.31,-266.77 -1479.79,145.73 -1479.79,698.25z"/>
  <path class="fil0" d="M22769.59 7608.88c0,304.29 243.67,552.05 485.54,651.27 537.05,220.33 690.92,30.76 793.37,414.46 -283.57,236.88 -814.01,-154.49 -1065.76,-213.15 -71.69,268.47 -137.11,206.67 -284.19,426.3 400.94,598.77 2060.47,660 2060.47,-355.23 0,-899.92 -1131.34,-513.1 -1278.91,-1065.76 447.17,-104.18 457.97,50.16 852.6,142.11 226.39,-165.88 57.79,-118.34 284.2,-284.22 77.89,192.99 -225.78,142.11 710.5,142.11 0,2129.44 -201.87,1847.3 710.51,1847.3l0 -1847.3 710.5 0 0 -568.41 -2131.51 0 0 213.15c-890.09,-596.02 -1847.32,-187.69 -1847.32,497.37z"/>
  <path class="fil0" d="M39253.3 9100.92c0,283.28 201.28,213.15 710.51,213.15l0 -1207.85c550.33,368.52 592.83,1207.85 1349.95,1207.85 163.73,0 213.16,-49.43 213.16,-213.15l0 -2202.56 -710.5 0 0 1136.82c-41.45,-47.7 -29.67,-31.44 -98.34,-114.81 -61.43,-74.59 -73.36,-90.36 -125.43,-158.79 -761.09,-1000.35 -512.61,-863.22 -1339.35,-863.22l0 2202.56z"/>
  <path class="fil0" d="M20424.93 9314.07c887.11,0 710.52,157.01 710.52,-1207.85 274.56,201.17 798.07,1207.85 1065.75,1207.85l426.3 0 0 -2415.71 -639.45 0 0 1136.82c-166.68,-111.61 -800.41,-941.33 -852.6,-1136.82l-710.52 0 0 2415.71z"/>
  <path class="fil0" d="M37903.35 8674.61c-760.72,0 -798.51,-1207.84 71.04,-1207.84 585.65,0 732.55,1207.84 -71.04,1207.84zm-1278.91 -639.43c0,1836.7 2557.81,1561.09 2557.81,71.04 0,-1687.78 -2557.81,-1665.02 -2557.81,-71.04z"/>
  <path class="fil0" d="M18932.87 7466.77c831.56,0 924.6,1207.84 0,1207.84 -240.46,0 -448.28,-318.29 -458.97,-578.08 -9.37,-227.37 172.52,-629.76 458.97,-629.76zm-1136.8 426.3c0,2152.14 2486.75,1549.27 2486.75,355.26l0 -355.26c0,-751.95 -1180.47,-1509.4 -2106.01,-756.06 -162.93,132.6 -380.74,495.6 -380.74,756.06z"/>
  <path class="fil0" d="M27672.07 8035.18l-213.15 0 0 -568.41 710.52 71.04 0 426.31c-222.26,18.49 -252.41,71.06 -497.37,71.06zm-852.61 1278.89l639.46 0c0,-550.1 -51.33,-534.71 71.06,-781.54 379.21,41.47 56.6,-106.48 522.16,543.59 241.82,337.65 376.59,237.95 898.84,237.95 -99.47,-427.01 -390.77,-466.21 -497.35,-923.65 660.95,-176.47 623.02,-1492.06 -426.3,-1492.06l-1207.87 0 0 2415.71z"/>
  <path class="fil0" d="M28950.98 7964.12c0,2040.58 2202.57,1447.66 2202.57,497.34l0 -1563.1 -639.45 0c0,1042.13 165.81,1776.25 -497.35,1776.25 -507.92,0 -355.26,-1146.57 -355.26,-1776.25l-710.51 0 0 1065.76z"/>
  <path class="fil0" d="M33427.17 8035.18c0,577.66 508.61,1278.89 1065.76,1278.89 571.29,0 925.02,-33.88 1207.84,-568.39 -174.05,-116.57 -307.64,-178.07 -426.3,-355.26 -197.78,132.46 -245.56,284.19 -568.39,284.19 -753.89,0 -669.81,-1207.84 -71.07,-1207.84 322.83,0 370.61,151.76 568.41,284.19 108.17,-72.43 426.71,-329.87 497.35,-426.3 -948.18,-1090.87 -2273.6,-207.89 -2273.6,710.52z"/>
  <path class="fil0" d="M15593.5 8035.18c0,1394.95 1607.21,1705.69 2273.61,710.5 -237.54,-125.69 -305.74,-188.72 -497.34,-355.26 -260.91,174.72 -215.47,284.19 -639.45,284.19 -530.83,0 -622.22,-1207.84 71.04,-1207.84 322.83,0 370.61,151.76 568.41,284.19 151.45,-206.72 246.45,-157.71 426.3,-426.3 -629.42,-939.94 -2202.57,-485.04 -2202.57,710.52z"/>
  <path class="fil0" d="M31295.66 7893.07c0,1810.32 1717.78,1647.58 2202.55,923.65 -179.85,-268.58 -274.84,-219.58 -426.3,-426.3 -94.06,63 -494,502.32 -889.69,179.19 -308.26,-251.77 -257.92,-1102.84 321.28,-1102.84 322.83,0 370.61,151.76 568.41,284.19 184.83,-276.01 241.47,-150.26 426.3,-426.3 -417.98,-624.18 -1268.49,-638.02 -1821.81,-187.65 -162.94,132.6 -380.74,495.6 -380.74,756.06z"/>
  <path class="fil0" d="M35771.83 9100.92c0,163.72 49.43,213.15 213.16,213.15l497.34 0 0 -2415.71 -710.5 0 0 2202.56z"/>
 </g>
</svg>
